<?xml version="1.0" standalone="no"?>
<!DOCTYPE svg PUBLIC "-//W3C//DTD SVG 20010904//EN"
 "http://www.w3.org/TR/2001/REC-SVG-20010904/DTD/svg10.dtd">
<svg version="1.0" xmlns="http://www.w3.org/2000/svg"
 width="1375.000000pt" height="1384.000000pt" viewBox="0 0 1375.000000 1384.000000"
 preserveAspectRatio="xMidYMid meet">

<g transform="translate(0.000000,1384.000000) scale(0.100000,-0.100000)"
fill="#db0000;" stroke="#db0000;">
<path d="M7110 13809 c-254 -65 -450 -250 -536 -504 -39 -115 -45 -286 -15
-405 28 -111 61 -179 160 -330 149 -228 260 -478 327 -739 31 -118 35 -148 32
-227 -3 -81 -8 -100 -40 -165 -105 -213 -334 -303 -588 -233 -199 56 -373 232
-424 429 -24 91 -46 311 -55 555 -7 196 -11 232 -30 283 -65 166 -225 265
-415 255 -191 -10 -347 -145 -387 -336 -22 -106 7 -241 69 -323 170 -225 218
-291 285 -399 43 -69 111 -190 150 -269 l72 -143 0 -102 c0 -96 -2 -104 -34
-164 -61 -111 -156 -178 -289 -202 -130 -23 -288 28 -379 123 -35 37 -254 349
-483 691 -188 282 -273 540 -290 881 -7 139 -14 185 -35 252 -46 148 -145 263
-280 327 -209 100 -432 79 -610 -57 -213 -162 -285 -466 -169 -708 61 -127
188 -228 370 -294 36 -13 89 -42 119 -64 92 -69 275 -242 436 -412 279 -292
269 -280 625 -806 110 -162 144 -220 144 -244 0 -73 -81 -139 -171 -139 -93 1
-155 51 -301 246 -105 141 -167 246 -225 380 -54 122 -102 182 -177 219 -233
114 -486 -40 -486 -295 0 -88 27 -163 81 -224 30 -34 67 -59 155 -101 63 -31
154 -82 202 -115 148 -99 353 -287 390 -357 16 -29 15 -96 -2 -136 -17 -43
-77 -94 -146 -126 -74 -34 -182 -35 -253 -3 -90 40 -296 193 -444 330 -352
326 -470 469 -618 751 -75 144 -157 231 -267 285 -76 38 -184 66 -253 66 -135
0 -294 -68 -394 -169 -115 -115 -167 -252 -159 -420 11 -240 141 -416 367
-499 55 -20 95 -25 237 -32 321 -16 553 -88 784 -243 231 -155 433 -302 464
-339 146 -170 129 -415 -39 -583 -105 -105 -230 -152 -385 -142 -105 6 -166
29 -367 141 -229 127 -454 283 -642 443 -143 122 -269 170 -416 160 -233 -17
-412 -166 -470 -392 -44 -172 10 -361 141 -491 73 -73 158 -118 264 -140 65
-13 91 -14 200 -2 71 7 240 13 390 13 297 -1 403 -14 648 -81 213 -58 270 -93
321 -196 40 -80 42 -159 5 -284 -85 -297 -305 -518 -591 -596 -110 -30 -287
-30 -448 0 -384 72 -759 190 -1135 357 -147 66 -232 86 -360 86 -129 0 -230
-24 -350 -82 -120 -59 -241 -180 -299 -300 -141 -293 -97 -623 114 -847 41
-44 103 -98 138 -121 139 -90 332 -134 490 -112 109 15 151 30 382 139 311
146 589 246 900 322 196 48 378 80 457 80 247 0 493 -151 602 -369 75 -150 89
-257 46 -345 -40 -79 -78 -104 -265 -172 -55 -20 -197 -80 -316 -134 -400
-181 -518 -217 -769 -230 -184 -10 -216 -17 -313 -67 -160 -84 -267 -265 -267
-453 0 -351 353 -604 683 -491 79 28 132 61 216 136 192 174 378 315 578 439
315 196 427 232 588 191 141 -37 249 -127 312 -262 32 -66 38 -89 41 -166 6
-111 -15 -194 -68 -275 -50 -77 -68 -92 -340 -297 -330 -249 -418 -289 -660
-305 -149 -10 -222 -29 -292 -78 -112 -78 -178 -190 -194 -330 -19 -175 85
-362 246 -440 233 -113 485 -22 610 220 97 189 183 298 385 489 309 291 399
371 448 396 46 25 62 28 147 28 113 -1 168 -19 287 -97 96 -62 249 -214 291
-288 61 -107 53 -179 -29 -255 -66 -61 -122 -85 -228 -95 -110 -10 -161 -24
-235 -63 -170 -90 -279 -291 -262 -484 22 -267 236 -463 505 -463 148 0 257
44 357 144 108 108 144 208 148 404 2 147 17 193 85 261 62 62 113 84 206 89
79 4 81 3 173 -43 120 -60 191 -129 240 -234 32 -67 37 -86 40 -172 5 -116 -3
-148 -94 -366 -159 -383 -368 -756 -626 -1120 -44 -62 -88 -138 -99 -168 -58
-165 -17 -330 110 -447 179 -166 462 -137 612 62 60 80 76 152 83 365 8 280
46 525 121 784 49 173 259 723 294 775 68 99 187 166 307 174 227 14 472 -131
581 -345 57 -112 77 -209 70 -337 -9 -163 -58 -275 -183 -416 -88 -101 -154
-225 -185 -350 -18 -70 -21 -104 -17 -205 8 -198 72 -353 201 -491 279 -299
767 -315 1068 -37 230 213 306 530 199 825 -34 94 -95 189 -185 288 -117 129
-224 309 -276 461 -27 80 -23 190 9 261 50 113 168 197 290 205 82 6 136 -7
199 -50 71 -49 106 -115 142 -266 143 -604 216 -1319 210 -2041 -2 -237 -1
-260 19 -321 60 -184 203 -307 401 -346 260 -51 518 108 595 366 21 71 21 211
0 281 -9 30 -83 185 -164 344 -266 520 -429 904 -575 1354 -74 229 -133 448
-140 519 -14 142 32 315 92 346 117 61 282 1 347 -125 41 -82 39 -152 -7 -288
-50 -144 -62 -231 -47 -333 23 -156 81 -270 193 -374 297 -277 792 -184 967
182 49 104 64 169 63 280 -1 186 -61 335 -182 456 -90 89 -164 129 -291 155
-136 27 -248 87 -290 157 -64 104 35 301 170 341 117 35 197 30 256 -16 32
-26 325 -391 417 -521 270 -381 452 -780 566 -1244 54 -223 109 -322 239 -429
120 -99 236 -139 392 -138 334 4 600 270 603 604 1 116 -13 180 -65 289 -74
156 -235 282 -408 321 -161 36 -343 113 -467 198 -144 99 -209 168 -486 515
-425 533 -420 526 -435 651 -19 150 25 281 126 385 140 143 345 181 515 96 26
-14 133 -86 237 -160 300 -215 360 -297 405 -556 21 -118 53 -198 115 -280 90
-120 221 -199 375 -225 244 -42 491 81 607 302 48 91 68 173 68 276 0 154 -48
273 -158 390 -78 82 -153 133 -246 167 -68 24 -79 25 -260 23 -216 -3 -309 10
-446 61 -350 132 -550 382 -550 687 0 147 57 316 118 352 64 38 132 18 234
-69 70 -60 103 -99 161 -189 75 -118 144 -177 250 -213 172 -60 361 -17 481
109 62 65 88 112 110 197 42 160 2 313 -113 436 -116 124 -284 165 -473 116
-137 -36 -244 -6 -332 92 -72 80 -91 140 -89 284 2 198 50 338 155 451 81 86
160 126 259 132 136 8 229 -45 321 -182 23 -34 76 -95 117 -137 212 -210 519
-305 816 -254 367 64 633 301 741 660 25 83 28 104 28 260 0 157 -2 177 -27
260 -116 378 -413 628 -804 676 -79 9 -121 9 -199 -1 -288 -36 -505 -167 -682
-412 -91 -127 -161 -168 -285 -168 -65 0 -83 4 -145 35 -189 95 -295 307 -296
595 -1 139 8 183 54 251 37 57 93 88 230 129 231 68 443 78 740 34 265 -39
284 -41 364 -32 97 10 184 46 269 109 201 151 287 381 227 613 -28 110 -74
190 -155 271 -154 154 -378 210 -586 145 -118 -36 -176 -80 -361 -273 -243
-254 -381 -365 -589 -476 -153 -81 -266 -124 -312 -118 -188 25 -388 289 -427
564 -16 119 13 180 125 255 136 92 268 129 520 147 152 10 209 26 295 81 215
138 276 453 132 676 -153 236 -485 294 -715 123 -103 -77 -168 -193 -183 -330
-4 -35 -15 -80 -24 -99 -49 -97 -243 -316 -312 -351 -48 -25 -118 -24 -168 1
-94 48 -239 272 -276 425 -26 106 -24 279 5 379 46 164 161 335 313 466 165
142 449 316 566 346 211 55 382 298 382 544 0 261 -176 490 -426 554 -78 20
-212 21 -289 1 -182 -47 -328 -178 -392 -351 -21 -58 -27 -97 -34 -239 -21
-376 -93 -570 -340 -910 -145 -199 -183 -243 -249 -285 -112 -71 -280 -80
-400 -22 -191 92 -310 275 -310 479 0 189 52 284 298 545 141 149 157 185 157
343 0 103 -2 114 -32 177 -41 87 -113 160 -199 200 -92 43 -219 50 -313 18
-117 -39 -201 -114 -254 -229 -31 -65 -31 -67 -38 -286 -8 -237 -27 -392 -58
-474 -46 -123 -137 -221 -258 -278 -342 -164 -742 90 -743 472 0 191 157 583
355 888 111 171 149 262 167 402 14 112 3 218 -36 340 -36 112 -89 197 -176
285 -109 108 -230 174 -378 205 -97 21 -261 18 -352 -6z m1840 -3835 c163 -88
189 -303 52 -426 -56 -50 -102 -68 -177 -68 -75 0 -121 18 -177 68 -79 71
-108 183 -73 283 55 154 231 221 375 143z m-1555 -29 c117 -56 203 -172 227
-305 47 -269 -209 -515 -478 -460 -253 52 -396 319 -298 557 26 62 89 137 146
175 85 57 129 69 243 65 86 -3 108 -7 160 -32z m-1227 -681 c125 -25 213 -74
313 -173 97 -98 149 -190 174 -307 45 -214 -14 -413 -170 -570 -200 -201 -474
-247 -725 -123 -159 79 -290 245 -331 419 -18 76 -15 222 5 300 85 320 409
520 734 454z m2532 -425 c353 -64 651 -333 756 -685 37 -126 45 -327 16 -464
-74 -360 -352 -649 -717 -746 -109 -29 -361 -27 -474 4 -280 76 -516 275 -637
536 -66 144 -79 211 -78 406 0 161 2 182 27 263 67 217 206 411 381 530 75 50
223 119 304 141 122 33 287 39 422 15z m1792 -1087 c52 -22 109 -78 135 -130
26 -52 25 -183 -1 -236 -25 -50 -75 -100 -129 -128 -59 -32 -174 -31 -234 0
-94 49 -145 127 -151 234 -4 56 0 75 21 120 14 29 32 60 39 68 84 94 207 122
320 72z m-5704 -398 c149 -62 189 -255 76 -368 -134 -134 -366 -50 -382 138
-6 69 11 118 57 169 65 72 165 97 249 61z m1622 -270 c304 -143 349 -545 85
-746 -84 -64 -144 -82 -265 -83 -97 0 -110 2 -172 32 -116 55 -199 147 -238
264 -18 53 -21 81 -18 159 3 81 9 105 35 160 53 109 149 194 263 232 41 13 79
17 150 15 82 -2 104 -7 160 -33z m1335 -770 c202 -53 383 -201 475 -389 59
-119 75 -189 75 -335 0 -102 -5 -139 -24 -200 -79 -257 -275 -448 -531 -517
-88 -24 -280 -23 -368 1 -183 50 -337 161 -437 315 -62 95 -93 178 -112 293
-14 85 -15 115 -5 193 22 177 95 326 219 447 127 123 239 179 433 212 47 8
215 -4 275 -20z m1827 -25 c75 -16 160 -64 212 -119 192 -205 127 -522 -132
-643 -60 -28 -76 -31 -157 -31 -103 1 -152 16 -233 71 -67 46 -127 128 -152
211 -89 289 167 573 462 511z m-4131 -325 c311 -91 453 -464 279 -734 -88
-137 -256 -230 -415 -230 -160 0 -327 93 -415 231 -172 266 -37 632 268 730
73 23 209 25 283 3z"/>
</g>
</svg>
